<svg xmlns="http://www.w3.org/2000/svg" viewBox="0 0 1280 720"><defs><style>.cls-1{fill:#80874d;}.cls-2{fill:#cc3129;}.cls-3{fill:#e5d8d8;}.cls-4{fill:#2289a8;}.cls-5{fill:#b5b5b5;}.cls-6{fill:#e8241a;}.cls-7{fill:#fff;}</style></defs><title>fc</title><g id="Layer_8" data-name="Layer 8"><polygon class="cls-1" points="483 264.5 822 263 822 272 485.65 269.01 484.01 269 483 264.5"/><polygon class="cls-2" points="487 282.57 821 285 820 268 486 268 487 282.57"/><polygon class="cls-3" points="487 285 822 285 822 280 485 281 487 285"/><polygon class="cls-2" points="488 284 488 294 825 294 823 284 488 284"/><polygon class="cls-2" points="468 298 840 298 836 303 469 305 466 301 468 298"/><polygon class="cls-1" points="483.15 292 474 298.43 840 301 819.67 294.57 483.15 292"/><path class="cls-1" d="M484,304l-7,370,74-1V490h6v-6l8-7s6-6,1-10-5-3-5-3,4-5-3-7-2-15,4-13c0,0,2-3-1-4,0,0-7-14,7-14,0,0-6-17,10-15,0,0-4-19,12-11,0,0,0-20,14-12,0,0,3-15,18-7,0,0-7-7,22-11,0,0,9-2,11-9,0,0,4,9,11,10s17,0,21,12c0,0,11-12,18,7,0,0,11-7,14,10,0,0,16-1,13,12,0,0,13,2,10,16,0,0,17,5,4,16,0,0,19,7-1,25h-5l-1,14h12v10h7V661l86-1L831,301Z"/><polygon class="cls-4" points="537 343 773 343 782 664 776 664 767 348 543 348 540 672 534 671 537 351 537 343"/><path class="cls-2" d="M541,349V455s14-86,95-97c0,0,17-4,20-8,0,0,8,8,31,10,0,0,42,15,64,44,0,0,18,29,22,54l-4-111Z"/><circle class="cls-3" cx="754.5" cy="361.5" r="6.5"/><circle class="cls-3" cx="556.5" cy="362.5" r="6.5"/><path class="cls-4" d="M793,347l10,323h12L804,347S798,337,793,347Z"/><path class="cls-4" d="M506.28,349.62l-10.82,323,12,.77,9.83-323S511.92,340,506.28,349.62Z"/></g><g id="Layer_9" data-name="Layer 9"><polygon class="cls-1" points="-0.41 576 215 578.21 215 670 -7 666.68 -0.41 576"/><polygon class="cls-4" points="-3.06 570 0 579 211 579 211 570 -3.06 570"/><polygon class="cls-2" points="-0.47 666.06 253.25 660 255.64 685.76 -5 710 -0.47 666.06"/><polygon class="cls-2" points="0 567 215 564 214.08 572 0 572 0 567"/></g><g id="Layer_10" data-name="Layer 10"><polygon class="cls-1" points="1085.51 560.55 1286.58 574.76 1281.11 666.39 1073.96 650.71 1085.51 560.55"/><polygon class="cls-4" points="1090.46 554.84 1088.17 563.71 1283.8 575.38 1284.33 566.4 1090.46 554.84"/><polygon class="cls-2" points="1066.96 647.87 1283.21 656.35 1284.26 673.44 1061.43 676.6 1066.96 647.87"/><polygon class="cls-2" points="1082.89 551.38 1285.21 560.44 1283.87 568.38 1082.6 556.37 1082.89 551.38"/><polygon class="cls-2" points="4.4 566.94 -7 567 -9 710 5.64 709.01 4.4 566.94"/></g><g id="Layer_7" data-name="Layer 7"><path class="cls-1" d="M869.42,454.38l-2,144.89.81,62.19,52.6-1.57-1.51-85.63,8.24-6.36s4.11-3.19-2.47-12.17S930,544.36,930,544.36s-6.65-11,5.95-12.41c0,0-.43-14.27,12.41-7.51,0,0,.8-8.19,12.35-9.55,0,0,2.94-7.23,10.52-.32,0,0,5.23-1.17,11.78,6.79,0,0,13.49-6.52,11.85,8.82,0,0,12.59-1.39,7.73,12,0,0,13.86,5.71-.44,20.41l6.58,9,.49,86.67L1065,656.6l-.91-206Z"/><polygon class="cls-1" points="871.43 425.76 1057.28 418.16 1057.4 422.24 874.57 427.71 871.43 425.76"/><polygon class="cls-3" points="872.88 440 872.84 440.7 872.19 451.24 1061.09 442.53 1059.85 435.43 872.88 440"/><polygon class="cls-2" points="866.75 423.9 867.18 439.19 1060.01 434.32 1058.32 418.17 866.75 423.9"/><polygon class="cls-2" points="857.87 453.71 1058.19 448.73 1058.25 450.77 857.97 456.77 857.87 453.71"/><polygon class="cls-1" points="1060.07 440.71 1060.35 449.88 866.19 454.68 872.21 449.4 1060.07 440.71"/><polygon class="cls-4" points="905.43 497.16 1018.39 492.76 1019.16 655.93 1016.08 656.02 1015.46 497.95 910.66 500.06 908.26 660.26 903.13 660.42 905.43 497.16"/><path class="cls-2" d="M909.6,499.08,909,547s15.07-46.35,55.18-45.51,52.64,41.27,52.64,41.27l-.35-45.89Z"/><polygon class="cls-2" points="868.2 661.46 868.69 677.77 920.02 675.21 919.56 659.93 868.2 661.46"/><polygon class="cls-2" points="1001.77 658.15 1068.61 654.99 1068.12 675.84 1001.25 677.84 1001.77 658.15"/></g><g id="Layer_6" data-name="Layer 6"><path class="cls-1" d="M251,458l-6,142-1,61h50l1-84,8-6s4-3-2-12,5-11,5-11-6-11,6-12c0,0,0-14,12-7,0,0,1-8,12-9,0,0,3-7,10,0,0,0,5-1,11,7,0,0,13-6,11,9,0,0,12-1,7,12,0,0,13,6-1,20l6,9-2,85h53l5-202Z"/><polygon class="cls-1" points="254 430 435 428 435 432 257 432 254 430"/><polygon class="cls-3" points="255 444 254.94 444.69 254 455 438 452 437 445 255 444"/><polygon class="cls-2" points="256.02 430 256 445 437.13 445.89 436 430 256.02 430"/><polygon class="cls-2" points="240 457 435 458 435 460 240 460 240 457"/><polygon class="cls-1" points="432 450 432 459 243 458 249 453 432 450"/><polygon class="cls-4" points="285 501 395 500 391 660 388 660 392 505 290 504 283 661 278 661 285 501"/><path class="cls-2" d="M289,503l-2,47s16-45,55-43,50,42,50,42l1-45Z"/><polygon class="cls-2" points="244 661 244 677 294 676 294 661 244 661"/><polygon class="cls-2" points="374 662 434 661 433 679 373 679 374 662"/></g><g id="Layer_4" data-name="Layer 4"><path class="cls-5" d="M1094.4,409.63l9.57-7.46-5.58-8s-39.26-10.85-61.91,8.73l5.23,12.33,10.8-3.3Z"/><polygon class="cls-1" points="1039.5 393.57 1040.08 399.22 1053.95 394.89 1079.15 392.62 1098.4 395.61 1097.36 384.15 1074.85 381.65 1045.22 387.26 1039.09 389.54 1039.5 393.57"/><polygon class="cls-3" points="1045.08 405.23 1051.03 410.8 1062.9 406.25 1058.6 398.71 1045.08 405.23"/><path class="cls-2" d="M1055,467.49c-.07-.7,4.88,78.92,4.88,78.92l11-1.17-6.73-81.58Z"/><polygon class="cls-6" points="1081.59 463.23 1081.64 463.98 1087.39 543.48 1070.87 545.24 1064.14 463.66 1081.59 463.23"/><polygon class="cls-2" points="1102.47 543.3 1096.02 464.51 1081.59 463.23 1087.39 543.5 1102.47 543.3"/><polygon class="cls-2" points="1060.15 556.97 1071.81 554.44 1080.73 673.27 1065.79 674.86 1060.15 556.97"/><polygon class="cls-6" points="1088.33 552.68 1097.64 667.75 1080.34 669.59 1071.81 554.43 1088.33 552.68"/><polygon class="cls-2" points="1101.82 552.49 1112.65 666.89 1097.59 667.25 1088.33 552.68 1101.82 552.49"/><polygon class="cls-2" points="1050.78 410.65 1054.13 459 1064.07 455.12 1059.86 406.15 1050.78 410.65"/><polygon class="cls-6" points="1077.16 404.31 1080.57 453.32 1064.06 455.08 1059.86 406.15 1077.16 404.31"/><polygon class="cls-2" points="1089.96 405.09 1095.88 455.27 1080.57 453.32 1077.16 404.31 1089.96 405.09"/><polygon class="cls-5" points="1064.85 322.61 1063.48 309.16 1061.38 309.38 1062.49 322.86 1064.85 322.61"/><path class="cls-1" d="M1047.39,346.19l.69,6.75,36.32-2.36-.69-6.74S1072.77,332.13,1047.39,346.19Z"/><path class="cls-2" d="M1047.43,346.65s14.08-10.09,36.39-1.73c0,0,2.92-18.2-19.82-22.94C1064,322,1041.84,330.78,1047.43,346.65Z"/><polygon class="cls-5" points="1098.63 349.79 1098.92 352.62 1102.71 358.65 1088.49 367.32 1047.31 368.78 1039.95 366.76 1035.15 358.69 1047.15 351.69 1076.18 347.88 1098.63 349.79"/><path class="cls-2" d="M1045.73,361.14l2.46,24.07s35.1-6.6,43.54-1.77l-2.6-25.49A68.93,68.93,0,0,0,1045.73,361.14Z"/><path class="cls-5" d="M1055.82,296.38s-4.64,9.08,5.09,10.91c0,0,9.65,1.12,4.49-10.5,0,0,4.36,3.83,3.94,7.45s.07.71.07.71-1.14,4.41-5.07,4.83c0,0-7.79,1.55-9.87-3.24S1055.82,296.38,1055.82,296.38Z"/><polygon class="cls-3" points="1035.04 388.76 1035.33 391.59 1050.69 386.37 1049.55 382.92 1035.04 388.76"/><polygon class="cls-3" points="1049.55 382.92 1050.69 386.37 1077.36 382.82 1076.99 379.28 1049.55 382.92"/><polygon class="cls-3" points="1076.99 379.28 1077.36 382.88 1100.02 386.85 1099.75 384.14 1076.99 379.28"/><polygon class="cls-3" points="1036.32 401.32 1036.63 404.33 1054.78 395.3 1054.27 390.29 1036.32 401.32"/><polygon class="cls-3" points="1077.86 387.77 1077.98 388.93 1078.33 392.41 1100.39 398.26 1100.71 393.54 1077.86 387.77"/><polygon class="cls-3" points="1076.37 396.52 1077.17 404.36 1091.68 406.34 1097.44 400.44 1076.37 396.52"/><polygon class="cls-3" points="1054.46 392.14 1054.78 395.24 1079.15 392.65 1077.84 387.78 1054.27 390.29 1054.46 392.14"/><polygon class="cls-7" points="1033.51 358.15 1033.79 360.98 1048.8 352.23 1046.94 349.56 1033.51 358.15"/><polygon class="cls-3" points="1058.28 398.45 1059.86 406.15 1077.16 404.31 1076.37 396.52 1058.28 398.45"/><polygon class="cls-3" points="1045.89 459.87 1062.87 453.5 1082.99 452.19 1105.36 457.31 1101.11 468.11 1085.51 463.87 1064.43 465.24 1051.28 471.35 1045.89 459.87"/><polygon class="cls-3" points="1049.12 550.14 1067.44 542.02 1089.55 539.67 1114.54 544.72 1110.52 557.47 1093.06 553.17 1069.9 555.63 1055.78 563.3 1049.12 550.14"/></g><g id="dome2"><path class="cls-5" d="M264.41,411.17,274.84,405l-4.55-8.62s-37.61-15.65-62.51,1l3.66,12.88,11.12-1.93Z"/><polygon class="cls-1" points="211.94 388.41 211.81 394.09 226.11 391.51 251.4 392.39 270.13 397.76 270.52 386.26 248.5 380.98 218.4 382.85 212.03 384.36 211.94 388.41"/><polygon class="cls-3" points="216.02 400.67 221.23 406.93 233.58 403.9 230.24 395.88 216.02 400.67"/><path class="cls-2" d="M218.11,463.68c0-.71-5,78.91-5,78.91l11.07.21L227.67,461Z"/><polygon class="cls-6" points="245.03 462.76 244.99 463.51 240.8 543.11 224.2 542.8 227.67 461.02 245.03 462.76"/><polygon class="cls-2" points="255.79 544.81 259.19 465.83 245.03 462.76 240.8 543.13 255.79 544.81"/><polygon class="cls-2" points="212.09 553.25 223.98 552.05 217.77 684.31 202.75 684.03 212.09 553.25"/><polygon class="cls-6" points="240.59 552.36 235.16 684.63 217.77 684.31 223.98 552.05 240.59 552.36"/><polygon class="cls-2" points="254 554.03 250.15 686.34 235.16 684.63 240.59 552.36 254 554.03"/><polygon class="cls-2" points="221.01 406.75 218.31 455.15 228.65 452.53 230.58 403.42 221.01 406.75"/><polygon class="cls-6" points="247.97 403.75 245.26 452.8 228.65 452.49 230.58 403.42 247.97 403.75"/><polygon class="cls-2" points="260.57 406.12 260.2 456.64 245.26 452.8 247.97 403.75 260.57 406.12"/><polygon class="cls-5" points="245.92 321.15 246.23 307.63 244.12 307.6 243.55 321.11 245.92 321.15"/><path class="cls-1" d="M225.66,342.38l-.16,6.78,36.34,2.18.15-6.78S252.59,331.59,225.66,342.38Z"/><path class="cls-2" d="M225.65,342.84s15.22-8.26,36.32,2.81c0,0,5.15-17.7-16.82-25.22C245.15,320.43,222.07,326.4,225.65,342.84Z"/><polygon class="cls-5" points="276.05 352.32 275.99 355.16 279 361.63 263.81 368.46 222.77 364.78 215.72 361.87 211.96 353.25 224.74 347.8 254.01 347.63 276.05 352.32"/><path class="cls-2" d="M222.16,357l-.56,24.19S257.24,379,265,384.85l.59-25.61A68.88,68.88,0,0,0,222.16,357Z"/><path class="cls-5" d="M240.22,294s-5.73,8.43,3.69,11.46c0,0,9.44,2.31,5.77-9.86,0,0,3.85,4.34,3,7.88s0,.72,0,.72-1.68,4.23-5.63,4.16c0,0-7.93.56-9.39-4.44S240.22,294,240.22,294Z"/><polygon class="cls-3" points="208.11 383.07 208.04 385.92 223.94 382.66 223.23 379.09 208.11 383.07"/><polygon class="cls-3" points="223.23 379.09 223.94 382.66 250.84 382.45 250.92 378.89 223.23 379.09"/><polygon class="cls-3" points="250.92 378.89 250.83 382.51 272.82 389.27 272.89 386.55 250.92 378.89"/><polygon class="cls-3" points="207.82 395.7 207.75 398.73 226.88 392.03 227 386.99 207.82 395.7"/><polygon class="cls-3" points="250.72 387.43 250.69 388.59 250.61 392.09 271.77 400.63 272.67 395.99 250.72 387.43"/><polygon class="cls-3" points="248.15 395.92 247.97 403.8 262.12 407.57 268.57 402.44 248.15 395.92"/><polygon class="cls-3" points="226.96 388.85 226.89 391.97 251.4 392.42 250.69 387.43 227 386.99 226.96 388.85"/><polygon class="cls-7" points="210.4 352.51 210.33 355.36 226.31 348.54 224.79 345.67 210.4 352.51"/><polygon class="cls-3" points="229.97 395.58 230.58 403.42 247.97 403.75 248.15 395.92 229.97 395.58"/><polygon class="cls-3" points="210.03 454.98 227.67 450.78 247.79 451.98 269.36 459.85 263.79 470.03 248.84 463.88 227.75 462.62 213.95 467.05 210.03 454.98"/><polygon class="cls-3" points="202 544.96 221.19 539.18 243.42 539.6 267.59 547.71 262.01 559.87 245.22 553.43 221.93 552.99 206.97 558.85 202 544.96"/><polygon class="cls-2" points="249 676 254.98 685.81 294 676 285 667 249 676"/><polygon class="cls-2" points="477 679 433 679 431.98 661.03 551 661.77 551 679 477 679"/><polygon class="cls-2" points="758 661 758 679 869.96 677.71 871 653 758 661"/></g><g id="dome1"><path class="cls-5" d="M495,267l13-9-6-12s-48-21-79,3l5,18,14-3Z"/><polygon class="cls-1" points="428 236.4 428 244.38 446 240.39 478 240.96 501.83 248 502 231.84 474 225 436 228.42 428 230.7 428 236.4"/><polygon class="cls-3" points="433.52 253.51 440.28 262.18 455.81 257.6 451.36 246.41 433.52 253.51"/><path class="cls-2" d="M438,342c0-1-4,111-4,111h14l2-115Z"/><polygon class="cls-6" points="472 340 471.97 341.05 469 453 448 453 450 338 472 340"/><polygon class="cls-2" points="488 455 490 343.93 472 340 469 453.03 488 455"/><polygon class="cls-2" points="433 468.11 448 466 444 662 425 662 433 468.11"/><polygon class="cls-6" points="469 466 466 665 444 665 448 466 469 466"/><polygon class="cls-2" points="486 468.13 485 666 466 663.87 469 466 486 468.13"/><polygon class="cls-2" points="440 261.93 438 330 451 326.05 452 257 440 261.93"/><polygon class="cls-6" points="474 257 472 326 451 326 452 257 474 257"/><polygon class="cls-2" points="490 260 491 331 472 326 474 257 490 260"/><polygon class="cls-5" points="469 141 469 122 466.33 122 466 141 469 141"/><path class="cls-1" d="M444,171.36v9.52L490,183v-9.52S477.73,155.49,444,171.36Z"/><path class="cls-2" d="M444,172s19-12,46,3c0,0,6-25-22-35C468,140,439,149,444,172Z"/><polygon class="cls-5" points="508 184 508 188 512 197 493 207 441 202.91 432 199 427 187 443 179 480 178 508 184"/><path class="cls-2" d="M440,192v34s45-4,55,4V194S470,182,440,192Z"/><path class="cls-5" d="M461,103s-7,12,5,16c0,0,12,3,7-14,0,0,5,6,4,11s0,1,0,1-2,6-7,6c0,0-10,1-12-6S461,103,461,103Z"/><polygon class="cls-3" points="423 229 423 233 443 228 442 223 423 229"/><polygon class="cls-3" points="442 223 443 228 477 227 477 222 442 223"/><polygon class="cls-3" points="477 222 477 227.09 505 236 505 232.18 477 222"/><polygon class="cls-3" points="423 246.75 423 251 447 241.08 447 234 423 246.75"/><polygon class="cls-3" points="477 234 477 235.64 477 240.54 504 252 505 245.46 477 234"/><polygon class="cls-3" points="474 246 474 257.08 492 262 500 254.62 474 246"/><polygon class="cls-3" points="447 236.63 447 241 478 241 476.97 234 447 234 447 236.63"/><polygon class="cls-7" points="425 186 425 190 445 180 443 176 425 186"/><polygon class="cls-3" points="451 246 452 257 474 257 474 246 451 246"/><polygon class="cls-3" points="427.52 329.98 449.7 323.61 475.18 324.77 502.67 335.26 495.93 349.72 476.85 341.47 450.16 340.25 432.83 346.84 427.52 329.98"/><polygon class="cls-3" points="420 456.62 444.1 448 472.21 448 503 458.77 496.31 476 474.89 467.38 445.44 467.38 426.69 476 420 456.62"/></g><g id="Layer_5" data-name="Layer 5"><path class="cls-5" d="M870.37,274l12.53-9.65-6.6-11.68s-49-18.55-78.74,7l5.9,17.73,13.83-3.71Z"/><polygon class="cls-1" points="801.91 246.79 802.32 254.76 820.09 249.87 852.08 248.82 876.24 254.65 875.59 238.5 847.28 233.09 809.5 238.42 801.63 241.1 801.91 246.79"/><polygon class="cls-3" points="808.29 263.61 815.48 271.92 830.76 266.56 825.75 255.62 808.29 263.61"/><path class="cls-2" d="M817.23,351.76c-.05-1,1.61,111.06,1.61,111.06l14-.71L829,347.16Z"/><polygon class="cls-6" points="851.09 348.04 851.11 349.1 853.8 461.05 832.82 462.11 829.02 347.16 851.09 348.04"/><polygon class="cls-2" points="872.87 462.09 869.26 351.06 851.09 348.04 853.8 461.08 872.87 462.09"/><polygon class="cls-2" points="818.6 477.85 833.48 475.09 838.88 661.06 819.9 662.02 818.6 477.85"/><polygon class="cls-6" points="854.45 474.03 860.85 659.95 838.88 661.06 833.48 475.09 854.45 474.03"/><polygon class="cls-2" points="871.53 475.19 880 662.54 860.93 661.49 854.45 474.03 871.53 475.19"/><polygon class="cls-2" points="815.19 271.69 816.63 339.77 829.41 335.18 826.92 266.16 815.19 271.69"/><polygon class="cls-6" points="848.9 265.05 850.38 334.06 829.41 335.12 826.92 266.16 848.9 265.05"/><polygon class="cls-2" points="865.03 267.24 869.61 338.1 850.38 334.06 848.9 265.05 865.03 267.24"/><polygon class="cls-5" points="838.05 149.45 837.09 130.47 834.42 130.61 835.05 149.6 838.05 149.45"/><path class="cls-1" d="M814.61,181l.48,9.51,46-.21-.48-9.51S847.5,163.48,814.61,181Z"/><path class="cls-2" d="M814.64,181.67s18.37-12.94,46.1.67c0,0,4.73-25.27-23.74-33.84C837,148.5,808.49,159,814.64,181.67Z"/><polygon class="cls-5" points="879.17 190.43 879.37 194.42 883.82 203.21 865.35 214.15 813.21 212.7 804.02 209.24 798.42 197.51 814 188.71 850.9 185.85 879.17 190.43"/><path class="cls-2" d="M811.66,201.85l1.71,34s44.74-6.26,55.14,1.22l-1.82-36S841.11,190.35,811.66,201.85Z"/><path class="cls-5" d="M828.14,111.9s-6.39,12.34,5.8,15.73c0,0,12.13,2.39,6.28-14.34,0,0,5.3,5.74,4.55,10.79s.05,1,.05,1-1.69,6.09-6.68,6.34c0,0-9.94,1.5-12.29-5.39S828.14,111.9,828.14,111.9Z"/><polygon class="cls-3" points="796.55 239.66 796.75 243.65 816.47 237.65 815.22 232.71 796.55 239.66"/><polygon class="cls-3" points="815.22 232.71 816.47 237.65 850.38 234.94 850.13 229.94 815.22 232.71"/><polygon class="cls-3" points="850.13 229.94 850.38 235.03 878.8 242.51 878.6 238.7 850.13 229.94"/><polygon class="cls-3" points="797.44 257.39 797.66 261.63 821.13 250.51 820.77 243.44 797.44 257.39"/><polygon class="cls-3" points="850.73 241.93 850.81 243.56 851.06 248.46 878.61 258.54 879.27 251.95 850.73 241.93"/><polygon class="cls-3" points="848.34 254.06 848.9 265.13 867.13 269.13 874.74 261.35 848.34 254.06"/><polygon class="cls-3" points="820.9 246.06 821.12 250.43 852.08 248.87 850.7 241.93 820.77 243.44 820.9 246.06"/><polygon class="cls-7" points="796.37 196.61 796.58 200.61 816.04 189.61 813.85 185.72 796.37 196.61"/><polygon class="cls-3" points="825.37 255.22 826.92 266.16 848.9 265.05 848.34 254.06 825.37 255.22"/><polygon class="cls-3" points="806.16 340.28 827.99 332.8 853.5 332.68 881.48 341.76 875.48 356.55 856.01 349.26 829.29 349.39 812.32 356.85 806.16 340.28"/><polygon class="cls-3" points="805.04 467.13 828.67 457.31 856.75 455.89 888.05 465.1 882.23 482.64 860.4 475.12 830.99 476.61 812.71 486.16 805.04 467.13"/></g></svg>